HIERARCHY
ROOT Hips
{
  OFFSET 74.0196 97.4445 -31.1285
  CHANNELS 6 Xposition Yposition Zposition Zrotation Xrotation Yrotation
  JOINT RightUpLeg
  {
    OFFSET -8.9458 -8.66707 0.101652
    CHANNELS 3 Zrotation Xrotation Yrotation
    JOINT RightLeg
    {
      OFFSET -2.94875e-013 -44.4227 1.3727
      CHANNELS 3 Zrotation Xrotation Yrotation
      JOINT RightFoot
      {
        OFFSET 0.253549 -42.0924 -1.46059
        CHANNELS 3 Zrotation Xrotation Yrotation
        JOINT RightToes
        {
          OFFSET 0.04 -4.41509 8.4991
          CHANNELS 3 Zrotation Xrotation Yrotation
          End Site
          {
            OFFSET -0.08 -0.137448 9.77979
          }
        }
      }
    }
  }
  JOINT Spine
  {
    OFFSET -5.68434e-014 11.8905 -6.39488e-014
    CHANNELS 3 Zrotation Xrotation Yrotation
    JOINT Spine1
    {
      OFFSET 5.68434e-014 25.6574 0.127663
      CHANNELS 3 Zrotation Xrotation Yrotation
      JOINT HEad
      {
        OFFSET 4.26326e-014 8.73416 0.011341
        CHANNELS 3 Zrotation Xrotation Yrotation
        End Site
        {
          OFFSET -0.29 12.7742 2.51395
        }
      }
      JOINT LeftShoulder1
      {
        OFFSET 8.99 -0.362252 -0.22
        CHANNELS 3 Zrotation Xrotation Yrotation
        JOINT LeftArm
        {
          OFFSET 10.2827 -0.00338 0.322123
          CHANNELS 3 Zrotation Xrotation Yrotation
          JOINT LeftForeArm
          {
            OFFSET 32.7669 0.099144 -1.42434
            CHANNELS 3 Zrotation Xrotation Yrotation
            JOINT LeftHand
            {
              OFFSET 27.5643 0.085362 1.02216
              CHANNELS 3 Zrotation Xrotation Yrotation
              End Site
              {
                OFFSET 16.7443 -0.6 1.50291
              }
            }
          }
        }
      }
      JOINT RightShoulder
      {
        OFFSET -8.99 -0.362252 -0.22
        CHANNELS 3 Zrotation Xrotation Yrotation
        JOINT RightArm
        {
          OFFSET -10.2827 -0.00338 0.322123
          CHANNELS 3 Zrotation Xrotation Yrotation
          JOINT RightForeArm
          {
            OFFSET -32.8971 0.099144 -1.42434
            CHANNELS 3 Zrotation Xrotation Yrotation
            JOINT RightHand
            {
              OFFSET -27.4921 0.085362 1.02216
              CHANNELS 3 Zrotation Xrotation Yrotation
              End Site
              {
                OFFSET -16.6312 -0.6 1.50291
              }
            }
          }
        }
      }
    }
  }
  JOINT LeftUpLeg
  {
    OFFSET 8.9458 -8.66707 0.101652
    CHANNELS 3 Zrotation Xrotation Yrotation
    JOINT LeftLeg
    {
      OFFSET 7.10543e-014 -44.4227 1.3727
      CHANNELS 3 Zrotation Xrotation Yrotation
      JOINT LeftFoot
      {
        OFFSET -0.253549 -42.0924 -1.46059
        CHANNELS 3 Zrotation Xrotation Yrotation
        JOINT LeftToes
        {
          OFFSET -0.04 -4.41509 8.4991
          CHANNELS 3 Zrotation Xrotation Yrotation
          End Site
          {
            OFFSET 0.08 -0.047448 9.77979
          }
        }
      }
    }
  }
}
MOTION
Frames:	9
Frame Time:	0.0166667
0.00000 96.00000 0.00000 0.00000 0.00000 0.00000 0.00000 0.00000 0.00000 0.00000 0.00000 0.00000 0.00000 0.00000 0.00000 0.00000 0.00000 0.00000 0.00000 0.00000 0.00000 0.00000 0.00000 0.00000 0.00000 0.00000 0.00000 0.00000 0.00000 0.00000 0.00000 0.00000 0.00000 0.00000 0.00000 0.00000 0.00000 0.00000 0.00000 0.00000 0.00000 0.00000 0.00000 0.00000 0.00000 0.00000 0.00000 0.00000 0.00000 0.00000 0.00000 0.00000 0.00000 0.00000 0.00000 0.00000 0.00000 0.00000 0.00000 0.00000 0.00000 0.00000 0.00000 
-48.223 89.1727 17.1271 7.81072 3.85288 123.822 -21.2156 -27.8977 8.47819 18.8156 48.4218 -21.9027 7.24293 15.5761 -1.48361 -14.2762 -38.827 -5.71578 1.40547 7.49683 -2.61644 -3.35463 14.2999 -3.83668 8.48114 2.05715 -8.66652 -5.03302e-021 -3.88251e-019 1.21329e-020 -73.9242 4.2714 -34.7462 -14.4597 37.2774 -105.351 6.54677 9.62745 -1.04006 24.8735 -2.50008 -11.6713 59.1753 -11.5611 25.3168 -11.5833 32.3405 123.39 -24.3078 8.01738 4.79233 19.5276 3.72902 -11.6401 -22.0696 36.529 18.4636 -4.07409 26.0447 1.02391 79.0391 -61.5566 60.0772 
-47.7614 88.6959 17.4149 8.35429 3.91885 123.874 -20.7406 -29.5723 8.64672 18.7689 51.565 -20.3397 9.40693 19.027 -2.18293 -15.0559 -42.1286 -5.28942 1.31202 7.7187 -2.57732 -3.69052 14.7113 -3.71727 9.18733 1.38131 -8.59704 -5.03302e-021 -3.88251e-019 1.21329e-020 -74.2933 3.99605 -36.877 -14.1929 37.0675 -106.003 6.54677 9.62745 -1.04006 25.6224 -2.47079 -11.313 59.6258 -12.4917 24.7745 -11.9236 32.5027 124.675 -24.522 8.05769 4.5162 20.0978 5.06844 -12.1462 -21.6613 35.7696 18.56 -3.12972 25.527 0.735236 79.9505 -61.2966 61.1966 
-47.082 88.4386 17.7349 8.83194 3.91467 124.21 -20.4441 -31.128 8.55802 18.7583 54.5252 -18.3646 11.8091 21.4685 -2.98096 -14.2697 -43.0641 -3.57644 1.21656 7.87398 -2.5791 -3.88328 15.0085 -3.71238 9.7069 0.806965 -8.62307 -5.03302e-021 -3.88251e-019 1.21329e-020 -75.0213 3.83042 -38.3916 -13.9714 37.1049 -106.912 6.54677 9.62745 -1.04006 26.177 -2.43548 -11.0101 60.3271 -13.4949 24.1268 -12.1672 32.6048 126.153 -24.583 8.17384 3.94082 20.7507 6.28055 -12.7582 -21.0632 34.8866 18.3403 -2.30841 24.7282 0.486337 78.9896 -60.8522 60.7027 
-46.1684 88.4149 18.0843 9.18693 3.83558 124.851 -20.3775 -32.3834 8.24482 18.7505 56.9247 -16.2608 13.8828 22.6219 -3.64529 -12.4669 -41.8259 -1.2552 1.12687 7.92116 -2.62622 -3.93456 15.1098 -3.83121 10.0639 0.464291 -8.77994 -5.03302e-021 -3.88251e-019 1.21329e-020 -76.0433 3.82337 -39.1085 -13.8169 37.3676 -107.947 6.54677 9.62745 -1.04006 26.5118 -2.40953 -10.816 61.1506 -14.4969 23.6064 -12.3683 32.6052 127.6 -24.3674 8.38603 2.99836 21.4599 7.26614 -13.4957 -20.2539 33.9216 17.7192 -1.75583 23.7363 0.321184 76.3855 -60.2351 58.782 
-45.0389 88.623 18.4634 9.37158 3.66905 125.779 -20.5521 -33.2013 7.82255 18.671 58.3548 -14.3046 15.1812 22.6239 -3.99224 -10.5117 -39.2213 0.810693 1.06929 7.83312 -2.70746 -3.87066 14.9525 -4.04222 10.3111 0.449054 -9.10405 -5.03302e-021 -3.88251e-019 1.21329e-020 -77.2042 4.01113 -39.0132 -13.7239 37.7755 -108.969 6.54677 9.62745 -1.04006 26.6298 -2.40201 -10.7543 61.9733 -15.5042 23.4218 -12.6486 32.4418 128.877 -23.756 8.70645 1.61265 22.2147 7.91522 -14.3304 -19.2767 32.9466 16.7352 -1.55813 22.7448 0.259607 72.6068 -59.4267 55.8388 
-43.7407 89.0404 18.8751 9.35739 3.40052 126.955 -20.9357 -33.5015 7.46652 18.4386 58.4624 -12.6602 15.5879 21.841 -3.99848 -8.93502 -36.1727 2.1747 1.07746 7.60612 -2.79917 -3.7316 14.516 -4.28433 10.5137 0.772404 -9.62539 -5.03302e-021 -3.88251e-019 1.21329e-020 -78.302 4.41443 -38.2477 -13.6676 38.2199 -109.863 6.54677 9.62745 -1.04006 26.5497 -2.4111 -10.8102 62.7164 -16.6037 23.7301 -13.1537 32.0534 129.914 -22.6823 9.12017 -0.244539 23.0115 8.11071 -15.1927 -18.2179 32.0647 15.5293 -1.74057 22.0367 0.301338 68.3076 -58.436 52.4433 
-42.3333 89.619 19.3245 9.14041 3.02903 128.338 -21.4754 -33.2576 7.34941 17.9852 57.0428 -11.3246 15.3 20.6308 -3.76834 -7.8701 -33.1824 2.74243 1.16687 7.26226 -2.8725 -3.55835 13.8353 -4.48932 10.731 1.33544 -10.3616 -5.03302e-021 -3.88251e-019 1.21329e-020 -79.1358 5.04195 -37.0758 -13.6184 38.599 -110.567 6.54677 9.62745 -1.04006 26.2962 -2.42641 -10.9412 63.3669 -17.9128 24.639 -14.0151 31.3948 130.657 -21.1692 9.57898 -2.51296 23.8367 7.74524 -15.9896 -17.1716 31.4085 14.2739 -2.29239 21.9252 0.442304 64.1771 -57.3592 49.1755 
-40.8705 90.2806 19.8174 8.7406 2.58312 129.897 -22.1276 -32.4814 7.57402 17.2554 54.1095 -10.1421 14.6764 19.185 -3.43586 -7.22668 -30.1541 2.52464 1.31055 6.84485 -2.90207 -3.38326 12.999 -4.60304 10.9947 1.94432 -11.3127 -5.03302e-021 -3.88251e-019 1.21329e-020 -79.5449 5.88528 -35.8309 -13.5544 38.8453 -111.073 6.54677 9.62745 -1.04006 25.8917 -2.43436 -11.0952 63.979 -19.5126 26.2257 -15.3032 30.4647 131.002 -19.3546 10.0141 -5.0257 24.6495 6.75188 -16.6237 -16.206 31.1285 13.0884 -3.19783 22.6498 0.691289 60.7423 -56.3911 46.4221 
